{"title":"Gomorra S03 E07 - 1080p x265 HEVC - ITA (ENG SUBS) [BRSHNKV]","magnet":"magnet:?xt=urn:btih:5e4d595b20f1c3a289abc145d4c48b1a2b021722&dn=Gomorra+S03+E07+-+1080p+x265+HEVC+-+ITA+%28ENG+SUBS%29+%5BBRSHNKV%5D&tr=udp%3A%2F%2Ftracker.leechers-paradise.org%3A6969&tr=udp%3A%2F%2Fzer0day.ch%3A1337&tr=udp%3A%2F%2Fopen.demonii.com%3A1337&tr=udp%3A%2F%2Ftracker.coppersurfer.tk%3A6969&tr=udp%3A%2F%2Fexodus.desync.com%3A6969","uploader":"Jazon1510","categoryP":"video","categoryS":"hd___tv_shows","size":"349036012","seeders":"119","leechers":"26","description":"Ciro disregards tradition in his attempt to become the next boss of his crime syndicate. The internal power struggle puts him and his entire family&apos;s life at risk. \r\n\r\n\r\n\r\nTech: \r\n\r\nFormat : MPEG-4 \r\nFormat profile : Base Media / Version 2 \r\nCodec ID : mp42 \r\nFile size : 333 MiB \r\nDuration : 43mn 24s \r\nOverall bit rate mode : Variable \r\nOverall bit rate : 1 072 Kbps \r\nMovie name : Gomorra S03 E07 - 1080p x265 HEVC [BRSHNKV] \r\nEncoded date : UTC 2017-12-09 18:37:28 \r\nTagged date : UTC 2017-12-09 18:37:28 \r\nWriting application : HandBrake 20160211184813-ffd8cb1-master 2016021301 \r\n\r\nVideo \r\nID : 1 \r\nFormat : HEVC \r\nFormat/Info : High Efficiency Video Coding \r\nFormat profile : Main <a href=\"/cdn-cgi/l/email-protection\" class=\"__cf_email__\" data-cfemail=\"a09190e0ec94\">[email&#xA0;protected]</a>@Main \r\nCodec ID : hev1 \r\nCodec ID/Info : High Efficiency Video Coding \r\nDuration : 43mn 24s \r\nBit rate : 901 Kbps \r\nWidth : 1 882 pixels \r\nHeight : 1 040 pixels \r\nDisplay aspect ratio : 16:9 \r\nFrame rate mode : Constant \r\nFrame rate : 25.000 fps \r\nColor space : YUV \r\nChroma subsampling : 4:2:0 \r\nBit depth : 10 bits \r\nBits/(Pixel*Frame) : 0.018 \r\nStream size : 280 MiB (84%) \r\nWriting library : x265 1.9:[Mac OS X][clang 7.0.2][64 bit] 10bit \r\nEncoded date : UTC 2017-12-09 18:37:28 \r\nTagged date : UTC 2017-12-09 18:37:28 \r\nColor range : Limited \r\nColor primaries : BT.709 \r\nTransfer characteristics : BT.709 \r\nMatrix coefficients : BT.709 \r\n\r\nAudio \r\nID : 2 \r\nFormat : AAC \r\nFormat/Info : Advanced Audio Codec \r\nFormat profile : LC \r\nCodec ID : 40 \r\nDuration : 43mn 24s \r\nBit rate mode : Variable \r\nBit rate : 164 Kbps \r\nChannel(s) : 2 channels \r\nChannel positions : Front: L R \r\nSampling rate : 48.0 KHz \r\nCompression mode : Lossy \r\nStream size : 51.1 MiB (15%) \r\nTitle : Stereo / Stereo \r\nLanguage : Italian \r\nEncoded date : UTC 2017-12-09 18:37:28 \r\nTagged date : UTC 2017-12-09 18:37:28","last_updated":"2017-12-11T12:08:44.917Z","parsed":{"xt":"urn:btih:5e4d595b20f1c3a289abc145d4c48b1a2b021722","dn":"Gomorra S03 E07 - 1080p x265 HEVC - ITA (ENG SUBS) [BRSHNKV]","tr":["udp://exodus.desync.com:6969","udp://open.demonii.com:1337","udp://tracker.coppersurfer.tk:6969","udp://tracker.leechers-paradise.org:6969","udp://zer0day.ch:1337"],"infoHash":"5e4d595b20f1c3a289abc145d4c48b1a2b021722","infoHashBuffer":{"type":"Buffer","data":[94,77,89,91,32,241,195,162,137,171,193,69,212,196,139,26,43,2,23,34]},"name":"Gomorra S03 E07 - 1080p x265 HEVC - ITA (ENG SUBS) [BRSHNKV]","announce":["udp://exodus.desync.com:6969","udp://open.demonii.com:1337","udp://tracker.coppersurfer.tk:6969","udp://tracker.leechers-paradise.org:6969","udp://zer0day.ch:1337"],"urlList":[]}}